<svg xmlns="http://www.w3.org/2000/svg" width="470" height="469" viewBox="0 0 470 469">
  <g transform="translate(0,470) scale(0.1,-0.1)" fill="#ffffff" stroke="none">
    <path d="M360 2850 l0 -1850 111 0 111 0 240 233 c132 127 256 245 274 260 l34 28 0 530 0 529 1220 0 1220 0 0 -522 -1 -523 273 -267 273 -267 113 -1 112 0 0 1850 0 1850 -1990 0 -1990 0 0 -1850z M1410 1877 l0 -473 -349 -347 -349 -347 -356 0 -356 0 2 -352 c2 -194 6 -352 11 -350 4 1 333 2 732 2 l725 0 0 288 0 288 116 215 c64 117 156 288 205 379 l89 164 0 503 0 503 -235 0 -235 0 0 -473z M2120 2243 c0 -60 -1 -322 -2 -583 l-2 -475 -178 -374 -178 -374 0 -213 0 -214 590 0 590 0 0 214 0 214 -111 233 c-61 129 -139 290 -173 359 l-61 125 -5 595 -5 595 -232 3 -233 2 0 -107z M2820 1848 l0 -502 92 -170 c51 -94 143 -265 205 -381 l113 -210 0 -287 0 -288 735 0 735 0 0 350 0 350 -355 0 -355 0 -350 346 -350 347 0 473 0 474 -235 0 -235 0 0 -502z"/>
  </g>
</svg>